<?xml version="1.0" standalone="no"?>
<!DOCTYPE svg PUBLIC "-//W3C//DTD SVG 20010904//EN"
 "http://www.w3.org/TR/2001/REC-SVG-20010904/DTD/svg10.dtd">
<svg version="1.0" xmlns="http://www.w3.org/2000/svg"
 width="2512.000000pt" height="2517.000000pt" viewBox="0 0 2512.000000 2517.000000"
 preserveAspectRatio="xMidYMid meet">
<metadata>
Created by potrace 1.16, written by Peter Selinger 2001-2019
</metadata>
<g transform="translate(0.000000,2517.000000) scale(0.100000,-0.100000)"
fill="#000000" stroke="none">
<path d="M9035 22744 c-84 -46 -120 -110 -112 -201 6 -74 31 -118 90 -157 137
-88 317 13 317 179 0 52 -44 131 -91 162 -52 35 -156 43 -204 17z"/>
<path d="M12243 21851 c-50 -23 -74 -57 -80 -114 -6 -52 12 -93 57 -131 l32
-26 268 0 268 0 32 26 c45 38 63 79 57 131 -6 57 -30 91 -80 114 -37 16 -68
19 -277 19 -209 0 -240 -3 -277 -19z"/>
<path d="M7830 12955 l0 -8305 4690 0 4690 0 0 8305 0 8305 -4690 0 -4690 0 0
-8305z m37 -4143 c-1 -2275 -2 -411 -2 4143 0 4554 1 6416 2 4137 2 -2279 2
-6005 0 -8280z m5050 12266 l53 -52 0 -136 c0 -186 5 -180 -157 -180 -173 0
-163 -13 -163 208 0 219 -4 212 124 212 l90 0 53 -52z m1322 -2 l51 -55 0
-133 c0 -184 5 -178 -157 -178 -173 0 -163 -13 -163 208 0 219 -4 212 125 212
l92 0 52 -54z m-5734 -156 l0 -165 -60 0 -60 0 0 60 c0 53 3 61 23 70 27 12
30 45 3 45 -38 0 -36 56 2 62 31 4 30 42 -1 46 -39 6 -72 -23 -72 -64 0 -27
-5 -37 -20 -41 -11 -3 -20 -13 -20 -23 0 -10 9 -20 20 -23 17 -4 20 -14 20
-71 l0 -67 -87 3 -88 3 -3 155 c-1 85 0 160 3 167 3 11 41 13 172 11 l168 -3
0 -165z m3099 156 c34 -3 46 -38 22 -65 -7 -9 -16 -36 -19 -60 -8 -62 -53
-130 -111 -165 -63 -39 -164 -48 -217 -20 -29 15 -31 19 -14 22 33 5 75 24 75
33 0 4 -9 11 -20 14 -11 3 -21 12 -22 18 0 7 -2 17 -2 24 -1 6 -8 19 -17 30
-22 24 -30 51 -19 58 6 3 5 16 0 31 -12 31 -12 45 -1 63 7 11 17 7 48 -18 36
-29 89 -51 120 -51 7 0 13 11 13 25 0 14 11 37 26 51 22 23 31 25 67 20 23 -4
55 -8 71 -10z m3356 -176 l0 -190 -40 0 -40 0 0 157 0 157 32 33 c18 18 36 33
40 33 4 0 8 -85 8 -190z m-4899 173 c14 9 21 9 30 0 9 -9 16 -9 30 0 14 9 21
9 30 0 9 -9 16 -9 30 0 14 9 21 9 30 0 9 -9 16 -9 29 0 14 8 22 8 34 -2 13
-11 19 -11 31 -1 12 10 18 10 30 0 12 -10 18 -10 30 0 13 11 15 -6 15 -142 0
-106 -4 -158 -12 -166 -8 -8 -61 -12 -175 -12 -150 0 -163 1 -173 19 -11 22
-14 294 -3 305 4 3 11 2 16 -3 6 -6 16 -5 28 2z m-331 -153 c0 -178 17 -162
-175 -158 l-130 3 -3 153 -3 152 156 0 155 0 0 -150z m1254 144 c14 -5 16 -28
16 -144 0 -116 -2 -139 -16 -144 -9 -3 -87 -6 -174 -6 -147 0 -160 1 -170 19
-5 11 -10 70 -10 131 0 61 5 120 10 131 10 18 23 19 170 19 87 0 165 -3 174
-6z m1244 -6 c8 -8 12 -55 12 -145 0 -129 -1 -133 -22 -138 -13 -3 -93 -4
-178 -3 l-155 3 -3 139 c-2 105 1 141 10 148 21 13 322 10 336 -4z m-3090
-115 l-3 -118 -37 -3 c-32 -3 -38 -7 -38 -27 0 -35 -12 -37 -56 -7 -34 23 -52
28 -134 32 l-95 5 -3 104 c-1 58 0 111 2 118 4 10 46 13 186 13 l181 0 -3
-117z m7060 -35 c2 -105 0 -127 -13 -132 -38 -14 -45 3 -45 101 l0 96 -31 -7
c-27 -5 -30 -3 -27 15 2 15 17 27 48 40 25 10 50 17 55 15 6 -1 11 -55 13
-128z m235 101 c27 -37 16 -77 -39 -138 l-45 -50 53 -3 c45 -3 53 -6 53 -23 0
-18 -7 -20 -85 -20 -108 0 -113 12 -37 94 59 65 71 91 53 117 -16 21 -52 11
-59 -17 -4 -15 -12 -20 -28 -17 -33 4 -33 21 -3 57 24 29 32 32 72 29 35 -2
49 -9 65 -29z m277 21 c36 -19 53 -138 30 -207 -16 -46 -76 -67 -122 -42 -58
31 -65 182 -11 241 18 20 73 24 103 8z m228 -74 c2 -61 7 -83 20 -93 16 -12
16 -14 0 -27 -10 -7 -18 -22 -18 -34 0 -11 -7 -22 -15 -26 -25 -9 -45 4 -45
30 0 22 -4 24 -50 24 -35 0 -52 5 -56 14 -3 8 21 56 53 106 50 78 61 90 83 88
24 -3 25 -6 28 -82z m-1723 54 c0 -10 -13 -16 -42 -18 -35 -3 -43 -7 -43 -23
0 -14 7 -19 28 -19 38 0 66 -32 66 -75 0 -46 -28 -75 -72 -75 -36 0 -72 23
-72 46 0 24 21 26 37 5 31 -45 88 -6 65 44 -11 24 -16 26 -52 20 -39 -7 -40
-6 -40 23 0 16 3 44 6 61 7 32 7 32 63 29 42 -2 56 -7 56 -18z m-1677 -166
l-3 -129 -40 0 -40 0 -3 99 -3 99 38 39 c20 21 41 34 45 30 5 -5 7 -67 6 -138z
m1314 4 l-1 -133 -40 -3 -41 -3 0 103 0 102 37 38 c20 21 39 36 41 33 2 -2 4
-64 4 -137z m1098 -18 l0 -91 -122 3 -123 3 -3 65 c-5 114 -10 110 128 110
l120 0 0 -90z m-3625 -4389 c73 -39 114 -114 115 -204 0 -69 -23 -120 -75
-165 -92 -81 -200 -83 -301 -6 -96 74 -107 231 -21 330 59 69 198 91 282 45z
m-460 -327 c106 -67 142 -187 90 -299 -51 -107 -179 -161 -281 -119 -103 43
-148 110 -149 219 0 60 4 76 29 116 29 45 79 87 120 101 40 13 160 2 191 -18z
m600 -385 c33 -86 40 -112 65 -257 23 -129 25 -220 8 -289 -6 -27 -15 -66 -20
-88 l-10 -39 -35 69 c-50 99 -110 180 -204 274 l-81 81 4 109 c2 60 7 113 11
118 8 8 53 -36 91 -90 24 -34 38 -34 52 1 46 112 78 182 84 182 5 0 20 -32 35
-71z m245 46 c0 -13 18 -61 40 -105 4 -9 11 -30 15 -48 5 -25 12 -32 30 -32
14 0 26 7 29 18 8 23 83 108 90 101 3 -3 6 -55 7 -116 l1 -110 -75 -78 c-41
-42 -92 -103 -114 -134 -21 -31 -40 -58 -44 -61 -3 -3 -20 -36 -38 -73 -26
-53 -36 -65 -46 -57 -20 17 -28 80 -27 235 0 163 22 288 72 410 5 11 12 30 15
43 7 25 45 31 45 7z m-994 -171 c88 -36 138 -114 138 -214 0 -98 -39 -160
-133 -210 -35 -18 -152 -15 -190 5 -18 9 -49 34 -70 55 -107 110 -65 302 79
364 46 20 128 20 176 0z m201 -523 c57 -41 89 -88 101 -146 38 -182 -141 -330
-310 -256 -140 61 -183 238 -86 356 46 55 91 74 179 75 69 0 80 -3 116 -29z
m451 -320 c49 -25 87 -72 108 -135 31 -91 -6 -195 -90 -253 -44 -30 -54 -33
-126 -33 -71 0 -82 3 -126 33 -68 45 -98 103 -98 187 1 101 49 175 137 213 53
22 138 17 195 -12z m-250 -1948 l2 -483 -75 0 -75 0 0 485 0 486 73 -3 72 -3
3 -482z m1332 312 c0 -96 2 -175 5 -175 2 0 24 14 49 31 36 26 57 32 114 37
121 8 195 -34 229 -132 15 -44 18 -87 18 -301 l0 -250 -75 0 -75 0 -5 253 -5
254 -33 29 c-24 22 -42 29 -73 29 -52 0 -104 -24 -129 -60 -19 -26 -20 -45
-20 -269 l0 -241 -75 0 -75 0 0 485 0 485 75 0 75 0 0 -175z m-1016 124 c56
-44 20 -139 -54 -139 -15 0 -39 9 -54 21 -56 44 -20 139 54 139 15 0 39 -9 54
-21z m-1306 -49 c2 -44 -3 -53 -229 -380 -127 -184 -234 -341 -236 -347 -4
-10 50 -13 234 -15 l238 -3 3 -62 3 -63 -341 0 -340 0 0 56 c0 60 -9 46 270
444 112 160 190 276 190 283 0 4 -103 7 -230 7 l-230 0 0 58 c0 32 3 62 7 65
4 4 153 6 332 5 l326 -3 3 -45z m508 -191 c53 -14 109 -60 136 -112 20 -39 23
-62 28 -287 4 -135 10 -253 14 -262 7 -16 1 -18 -68 -18 -80 0 -77 -1 -92 47
-2 9 -20 2 -55 -20 -49 -30 -59 -32 -140 -32 -81 0 -90 2 -131 30 -98 68 -118
222 -40 308 47 52 188 91 307 85 49 -3 50 -2 53 27 5 51 -24 104 -65 122 -66
27 -173 -8 -173 -58 0 -15 -7 -19 -32 -19 -18 0 -49 -3 -68 -5 -50 -8 -62 3
-50 47 35 126 203 191 376 147z m1329 6 c86 -14 164 -79 184 -152 6 -21 11
-41 11 -45 0 -5 -34 -8 -75 -8 l-75 0 -15 35 c-26 63 -122 85 -186 42 -36 -24
-44 -44 -35 -83 8 -30 42 -47 146 -74 172 -44 240 -102 240 -205 0 -134 -114
-213 -294 -203 -144 7 -236 73 -261 186 l-7 32 74 0 74 0 12 -34 c15 -42 48
-65 106 -72 81 -12 146 27 146 86 0 41 -37 66 -139 95 -162 45 -219 85 -241
166 -28 105 64 216 199 239 46 8 60 7 136 -5z m1466 -17 c55 -23 91 -58 116
-113 15 -34 18 -72 20 -245 1 -196 6 -259 19 -294 5 -14 -5 -16 -75 -16 -75 0
-81 2 -81 20 0 32 -25 34 -69 5 -75 -50 -215 -44 -280 11 -53 44 -75 91 -75
158 1 72 19 112 71 155 49 41 111 59 233 67 l100 7 0 36 c0 20 -6 47 -13 61
-14 29 -70 60 -107 60 -38 0 -92 -32 -110 -65 -15 -28 -21 -30 -80 -33 -35 -2
-67 1 -72 6 -17 17 1 67 38 110 79 92 239 123 365 70z m-1981 -328 l0 -340
-70 0 -70 0 0 340 0 340 70 0 70 0 0 -340z m870 -1950 c27 -14 41 -71 29 -115
-11 -40 -33 -55 -82 -55 -38 0 -61 20 -71 64 -8 34 9 92 32 106 22 12 68 13
92 0z m-659 -5312 l119 -103 0 -148 0 -147 -247 2 -248 3 -3 142 -3 142 118
105 c65 58 124 105 131 106 8 0 68 -46 133 -102z m-2517 56 c3 -9 6 -109 6
-223 0 -211 -3 -231 -39 -231 -19 0 -366 196 -382 217 -9 10 -10 20 -3 31 16
26 355 220 385 221 16 1 29 -6 33 -15z m5175 -18 c8 -9 11 -72 9 -202 l-3
-189 -199 -3 c-138 -2 -203 1 -212 9 -11 9 -14 50 -14 186 0 101 4 182 10 194
10 18 23 19 204 19 152 0 196 -3 205 -14z"/>
<path d="M10060 20855 l0 -66 66 3 67 3 0 60 0 60 -67 3 -66 3 0 -66z"/>
<path d="M9450 20920 l0 -130 125 0 125 0 0 130 0 130 -125 0 -125 0 0 -130z
m107 -23 c15 -13 31 -18 50 -14 40 7 83 -18 83 -48 l0 -25 -115 0 -115 0 0 39
c0 31 6 43 27 59 29 21 35 21 70 -11z"/>
<path d="M11481 12640 c-54 -13 -86 -52 -86 -106 0 -36 5 -50 24 -65 53 -43
141 -36 196 15 33 32 35 37 35 100 l0 66 -67 -1 c-38 -1 -83 -5 -102 -9z"/>
<path d="M14265 12643 c-72 -16 -105 -51 -105 -113 0 -47 47 -90 99 -90 51 0
89 15 124 48 24 23 27 33 27 94 l0 68 -62 -1 c-35 -1 -72 -3 -83 -6z"/>
<path d="M12431 5363 l-101 -87 0 -108 0 -108 200 0 200 0 0 109 0 109 -99 86
-99 86 -101 -87z"/>
<path d="M9941 5332 c-74 -42 -134 -81 -134 -86 1 -9 260 -165 276 -166 4 0 7
74 7 165 0 91 -3 165 -7 165 -5 0 -68 -35 -142 -78z"/>
<path d="M14960 5255 l0 -155 160 0 161 0 -3 153 -3 152 -157 3 -158 3 0 -156z"/>
<path d="M16913 2357 c-1 -30 -1 -30 7 -7 8 26 12 23 12 -10 0 -33 -1 -34 -22
-15 -11 10 -17 22 -13 28 3 6 1 7 -6 3 -6 -4 -9 -11 -6 -16 3 -5 0 -12 -6 -16
-7 -4 -9 -3 -6 3 4 6 -1 17 -10 24 -9 8 -14 9 -10 3 4 -7 -12 -20 -42 -33 -54
-23 -75 -27 -51 -10 12 9 11 10 -5 4 -11 -3 -24 -7 -30 -8 -5 -1 -16 -9 -23
-17 -8 -8 -11 -9 -7 -2 7 14 4 15 -19 6 -9 -3 -14 -10 -11 -14 3 -5 -5 -6 -17
-2 -16 4 -19 2 -13 -8 5 -9 4 -11 -3 -6 -6 4 -29 2 -49 -3 -21 -6 -56 -13 -78
-16 -22 -4 -67 -10 -100 -16 -88 -13 -7691 -12 -7775 2 -36 6 -81 12 -100 15
-19 2 -51 9 -71 14 -20 6 -45 7 -55 4 -14 -4 -15 -3 -6 4 11 7 9 10 -7 15 -14
3 -19 1 -15 -6 3 -7 -1 -4 -9 6 -16 20 -31 23 -22 5 4 -7 1 -6 -7 2 -7 8 -18
16 -23 17 -6 1 -19 5 -30 8 -17 6 -17 5 -5 -5 12 -9 10 -10 -10 -4 -14 3 -38
13 -54 21 -34 17 -89 29 -66 14 8 -5 19 -7 25 -3 5 3 4 -2 -4 -11 -7 -9 -16
-17 -19 -17 -3 0 -2 3 1 7 4 3 -1 12 -10 18 -15 11 -15 15 -4 31 8 11 -3 0
-23 -23 -35 -40 -39 -42 -58 -29 -22 16 -52 11 -41 -8 3 -6 1 -6 -8 2 -7 6
-17 12 -22 12 -4 0 -5 -6 -1 -12 6 -10 4 -10 -7 -2 -20 15 -45 11 -41 -6 3
-12 1 -12 -9 -3 -10 10 -15 9 -26 -5 -12 -16 -13 -16 -7 1 5 13 2 16 -10 11
-9 -3 -14 -9 -11 -13 2 -4 -2 -8 -10 -8 -8 0 -12 4 -9 8 2 4 0 11 -6 14 -8 5
-6 14 4 30 12 17 13 26 4 31 -6 4 -8 3 -5 -2 3 -5 -4 -21 -15 -34 -11 -14 -18
-18 -15 -9 3 9 -1 16 -8 16 -10 0 -11 -6 -2 -24 8 -18 7 -27 -8 -43 -12 -13
-22 -17 -28 -11 -5 5 -16 7 -23 4 -8 -3 -14 0 -14 7 0 6 5 8 10 5 6 -3 13 0
16 8 2 7 12 14 21 14 14 0 14 -2 -1 -13 -10 -7 -13 -15 -8 -18 18 -11 34 21
22 43 -12 24 -22 28 -14 6 4 -10 0 -13 -15 -10 -14 2 -18 -1 -15 -10 4 -10 0
-13 -15 -10 -13 2 -18 -1 -15 -10 6 -15 -12 -15 -36 -1 -12 7 -13 6 -3 -4 10
-11 9 -18 -5 -34 -16 -20 -16 -20 1 -7 21 16 22 3 2 -23 -10 -13 -11 -24 -5
-36 5 -10 6 -21 2 -26 -4 -5 1 -2 11 5 16 13 18 12 13 -13 -3 -15 -1 -24 5
-21 5 4 7 10 5 14 -3 4 -1 13 4 21 5 8 3 24 -5 40 -9 18 -10 31 -3 44 9 17 11
17 25 -3 8 -12 19 -18 25 -15 7 4 8 2 4 -5 -4 -6 -12 -8 -18 -5 -6 4 -8 1 -6
-7 3 -8 11 -13 17 -11 7 1 10 -2 7 -7 -4 -5 -2 -12 3 -16 6 -3 8 -13 5 -23 -4
-11 2 -8 15 8 17 20 20 21 14 5 -6 -18 -5 -19 13 -5 19 14 19 14 1 -7 -20 -23
-43 -24 -59 -2 -8 11 -9 11 -4 -3 3 -10 1 -20 -4 -23 -13 -8 -13 28 0 41 8 8
6 15 -6 25 -16 12 -17 12 -11 -3 3 -9 2 -31 -3 -48 -5 -19 -5 -28 1 -25 5 4 9
1 9 -6 0 -7 7 -4 16 7 14 17 15 17 10 1 -3 -10 -2 -16 3 -12 5 3 12 -1 15 -7
3 -7 3 -2 0 12 -7 30 11 16 20 -15 3 -13 4 -11 2 6 -4 36 29 58 44 29 6 -11
16 -20 22 -20 6 0 5 7 -3 18 -12 15 -12 16 2 5 11 -9 18 -10 27 -1 8 8 10 6 7
-8 -2 -11 -4 -19 -6 -19 -9 0 -3 -47 8 -57 8 -6 13 -7 12 -2 -4 21 2 28 11 14
7 -11 10 -11 10 -2 0 7 5 10 10 7 6 -4 8 -10 6 -14 -3 -4 1 -8 9 -8 8 0 12 4
9 8 -2 4 0 10 6 14 5 3 10 -2 11 -12 0 -16 1 -16 8 1 9 23 18 10 15 -21 0 -12
2 -20 7 -17 4 2 5 12 2 22 -5 15 -3 14 16 -3 12 -11 22 -15 21 -10 -5 22 1 29
11 15 8 -12 9 -9 4 10 -6 24 -5 24 9 6 9 -10 12 -24 9 -30 -5 -8 -3 -8 8 0 8
6 21 10 29 9 10 -2 16 5 17 19 1 11 -1 15 -4 8 -4 -10 -9 -8 -19 5 -12 15 -13
15 -8 2 3 -10 0 -20 -6 -24 -7 -4 -10 -1 -8 10 4 22 -31 29 -39 8 -5 -12 -9
-8 -19 13 l-13 29 6 -30 c3 -16 2 -27 -3 -22 -15 14 -14 45 2 58 8 7 14 8 13
3 -3 -19 1 -34 11 -34 5 0 7 8 3 18 -5 14 -3 14 11 -3 l18 -20 -6 20 c-6 20
-6 20 9 1 14 -18 20 -15 15 9 -1 5 7 2 18 -8 10 -9 22 -14 27 -10 4 5 5 2 1
-4 -4 -7 -3 -13 3 -13 5 0 12 6 14 13 4 10 6 10 6 0 1 -7 6 -13 12 -13 5 0 8
4 4 9 -3 5 -1 13 5 16 6 4 9 1 8 -6 -2 -6 3 -14 10 -16 7 -3 11 -1 10 4 -2 4
0 9 5 11 16 5 19 1 7 -13 -7 -8 -8 -15 -2 -15 5 0 17 10 26 22 l17 23 -11 -22
c-9 -19 -8 -23 5 -23 9 0 14 4 10 9 -3 5 -1 13 5 16 6 4 9 1 8 -6 -2 -7 6 -13
17 -13 11 0 19 5 18 10 -1 6 5 11 12 11 9 0 11 -4 6 -11 -5 -6 -7 -19 -6 -28
2 -10 -2 -21 -7 -25 -7 -4 -9 1 -6 14 3 12 0 20 -7 20 -7 0 -10 -8 -7 -20 3
-14 1 -18 -7 -13 -6 4 -9 11 -6 16 3 5 1 11 -4 14 -5 4 -13 2 -16 -4 -5 -8
-11 -8 -20 0 -10 8 -15 8 -20 -1 -6 -8 -10 -7 -16 2 -7 12 -9 11 -10 -1 0 -10
-3 -8 -9 5 -8 19 -9 19 -9 1 -1 -20 -1 -20 -15 0 -14 18 -15 18 -22 1 -3 -10
-4 -21 0 -24 3 -4 6 2 6 13 0 16 2 16 10 4 5 -9 5 -19 -1 -26 -7 -8 -6 -15 2
-20 7 -4 9 -3 6 3 -4 6 1 17 10 24 15 12 16 12 10 -6 -6 -18 -6 -19 6 -3 13
16 15 16 31 0 10 -9 16 -12 15 -7 -4 22 2 29 11 15 7 -11 10 -11 10 -2 0 7 5
10 11 7 7 -5 4 -14 -8 -28 -18 -22 -18 -22 2 -6 11 9 32 15 47 14 15 -1 25 2
22 6 -2 4 0 10 6 14 5 3 10 -1 10 -9 0 -8 4 -18 10 -21 6 -4 7 2 1 17 -5 13
-14 22 -20 21 -6 -2 -8 4 -4 14 4 11 8 13 11 5 2 -7 8 -12 13 -12 6 0 5 9 -1
23 -11 21 -10 21 4 3 15 -18 21 -15 17 7 -2 13 18 -2 28 -22 6 -11 6 -22 -1
-32 -8 -11 -9 -10 -4 6 6 19 5 19 -8 2 -14 -18 -14 -18 -20 0 -4 16 -5 16 -3
-1 1 -11 10 -20 20 -22 20 -3 42 31 31 48 -4 6 -3 8 4 4 5 -3 12 -1 14 6 3 7
7 5 11 -6 4 -10 3 -15 -3 -11 -6 3 -10 1 -10 -4 0 -18 21 -12 41 12 11 12 19
18 18 12 -3 -22 2 -29 11 -15 7 11 8 4 6 -23 -2 -20 0 -40 5 -43 5 -3 9 -2 8
3 -4 20 2 27 12 13 9 -13 10 -13 6 0 -2 8 -9 14 -15 13 -7 -2 -9 4 -5 14 4 11
8 13 11 5 6 -19 21 -14 17 6 -2 11 3 19 10 19 8 0 11 -5 8 -11 -4 -5 -8 -22
-9 -35 -2 -20 -1 -22 6 -11 9 13 10 13 11 0 1 -8 1 -19 0 -23 -1 -5 3 -6 8 -2
6 3 8 13 5 23 -5 14 -3 14 10 -2 9 -11 16 -14 16 -7 0 7 5 9 10 6 6 -4 7 -11
4 -17 -4 -7 -2 -8 5 -4 6 4 9 11 6 16 -3 5 -1 11 5 15 5 3 10 -2 11 -12 0 -16
1 -16 9 2 8 19 11 18 14 -4 0 -5 5 -13 9 -18 5 -4 8 -3 7 2 -5 23 1 26 17 8
10 -10 15 -14 10 -9 -11 16 -8 28 6 19 17 -11 38 -13 32 -3 -3 5 -1 11 4 14 5
4 12 -2 15 -11 4 -14 4 -14 3 2 -2 21 -24 27 -44 12 -9 -6 -13 -5 -13 4 0 12
-2 12 -9 0 -5 -8 -11 -9 -15 -3 -3 5 -19 8 -36 7 -17 -1 -30 2 -30 9 0 7 -3 7
-8 1 -11 -15 -32 -17 -32 -3 0 7 5 20 11 28 9 13 10 12 5 -2 -6 -20 10 -25 17
-5 4 10 6 10 6 0 1 -7 6 -13 12 -13 5 0 8 4 4 9 -3 5 -1 13 5 16 6 4 9 1 8 -7
-2 -8 6 -13 19 -12 13 1 20 -3 17 -7 -3 -5 -1 -9 5 -9 5 0 12 6 14 13 4 10 6
10 6 0 1 -7 6 -13 12 -13 5 0 8 4 5 9 -7 10 20 9 30 -2 18 -18 25 -4 8 15 -12
14 -13 18 -3 10 9 -6 18 -9 21 -6 3 3 4 -14 2 -38 -2 -34 -1 -38 6 -20 12 29
23 29 15 0 -4 -16 -3 -19 3 -9 8 11 10 11 15 0 2 -8 4 -2 3 12 -1 20 -6 26
-19 24 -14 -3 -15 -1 -7 16 12 21 22 26 14 6 -3 -8 4 -13 17 -14 15 -1 18 1
10 11 -8 9 -7 13 4 13 7 0 13 -5 12 -11 -1 -6 4 -10 11 -8 14 2 16 -14 3 -22
-5 -4 -12 0 -14 6 -4 10 -6 10 -6 0 -1 -7 -5 -11 -10 -8 -5 4 -6 -4 -3 -16 5
-19 7 -20 10 -5 2 9 8 15 13 11 5 -3 7 -9 4 -14 -6 -10 15 -8 33 3 13 9 16 -3
5 -19 -5 -5 0 -1 10 9 15 18 22 15 18 -6 -1 -5 4 -5 11 0 7 4 20 8 28 8 8 0
21 4 28 8 16 11 16 -5 0 -23 -11 -12 -10 -12 3 -2 9 6 19 9 23 5 4 -4 4 1 1
12 -6 16 -3 15 14 -5 17 -20 20 -21 14 -5 -6 18 -5 18 10 6 9 -7 17 -10 17 -6
0 4 8 1 17 -6 10 -8 14 -9 10 -2 -4 6 -3 14 3 18 5 3 10 0 10 -7 0 -8 3 -9 8
-3 9 13 81 13 101 1 10 -6 12 -5 7 2 -8 13 28 12 40 -1 4 -4 14 -1 22 6 13 10
15 9 9 -8 -6 -16 -3 -15 14 5 11 14 19 18 16 9 -3 -9 1 -16 8 -16 7 0 11 7 8
16 -3 11 0 10 11 -3 9 -11 16 -14 16 -7 0 7 5 9 10 6 6 -4 7 -11 4 -17 -4 -7
-2 -8 5 -4 6 4 9 11 6 16 -3 5 -1 11 5 15 6 4 7 11 3 18 -4 7 -9 4 -14 -9 -6
-15 -8 -15 -8 -3 -1 9 6 22 15 29 8 8 14 9 13 4 -4 -21 2 -28 12 -14 9 12 10
12 5 -3 -4 -12 -2 -17 6 -14 7 2 12 13 10 23 -3 18 -3 18 10 1 13 -17 15 -17
27 -3 10 12 17 13 26 6 9 -8 15 -8 20 0 5 8 10 8 20 0 10 -8 15 -8 20 0 5 8
11 8 21 -1 11 -9 14 -8 14 2 1 10 4 9 10 -3 6 -10 19 -15 30 -13 11 2 18 0 15
-6 -4 -5 -2 -9 4 -9 5 0 12 6 14 13 4 10 6 10 6 0 1 -7 6 -13 11 -13 6 0 9 3
8 8 -2 4 1 9 6 12 13 7 16 -29 4 -37 -7 -4 -8 -1 -3 8 8 12 6 12 -8 0 -14 -11
-17 -11 -17 0 0 12 -2 12 -9 0 -5 -8 -11 -9 -15 -3 -10 17 -39 7 -48 -17 -5
-14 -4 -20 2 -16 6 3 10 13 10 21 0 8 5 12 10 9 6 -4 8 -10 5 -15 -6 -10 15
-8 33 3 13 9 16 -3 5 -19 -5 -5 0 -1 10 9 16 18 22 15 17 -8 -1 -5 9 -1 21 10
22 20 22 20 15 0 -5 -15 -4 -17 5 -8 13 13 3 36 -13 27 -6 -4 -6 0 1 13 6 11
7 24 3 29 -4 5 4 0 17 -11 22 -18 24 -18 18 -2 -4 11 -3 16 4 12 6 -4 8 -13 5
-21 -3 -8 -1 -14 4 -14 9 0 14 13 12 31 -1 3 6 6 14 6 10 0 11 -4 4 -11 -5 -5
-10 -15 -10 -21 1 -5 10 1 21 15 17 20 20 21 17 6 -1 -10 2 -21 9 -23 8 -3 11
3 8 17 -3 18 -1 20 10 10 9 -8 15 -8 20 0 5 8 10 8 20 0 10 -8 15 -8 20 0 5 8
11 8 21 -1 7 -6 11 -15 8 -20 -3 -5 0 -9 7 -9 6 0 9 8 6 20 -3 11 -1 18 4 14
5 -3 9 -12 9 -20 0 -8 5 -14 11 -14 5 0 7 5 4 10 -4 6 -1 9 7 8 7 -2 12 2 11
8 -1 6 4 11 12 11 8 0 13 -3 12 -6 -1 -3 3 -6 8 -6 6 0 9 5 7 10 -1 6 6 0 17
-12 25 -29 35 -29 21 0 -11 21 -10 21 4 3 15 -18 20 -15 17 9 -1 6 9 -2 22
-18 29 -35 42 -35 21 1 -14 24 -14 25 0 8 15 -18 21 -15 17 8 -1 5 4 5 11 0 7
-6 56 -10 110 -9 87 1 96 -1 93 -17 -2 -10 0 -18 6 -18 8 0 13 13 11 31 -1 3
5 6 12 6 7 0 13 -6 13 -13 0 -7 -4 -11 -9 -8 -4 3 -8 0 -8 -5 0 -6 7 -11 15
-11 8 0 15 6 15 13 0 8 4 7 10 -3 9 -14 11 -13 14 10 0 6 4 10 9 10 4 0 10 0
13 0 4 0 1 -7 -6 -15 -8 -10 -9 -15 -2 -15 6 0 16 9 22 21 9 15 15 18 25 9 10
-8 15 -8 20 0 5 8 11 8 19 1 9 -7 16 -7 24 1 9 9 10 6 7 -11 -3 -14 0 -21 8
-18 7 2 12 10 12 17 0 7 7 14 16 15 9 2 16 -3 16 -11 0 -7 -3 -12 -6 -11 -3 1
-8 -2 -11 -7 -3 -5 5 -11 17 -12 17 -3 21 0 17 14 -5 14 -4 15 5 2 10 -14 12
-13 15 10 0 6 6 10 11 10 6 0 11 -4 11 -10 3 -23 6 -24 15 -5 9 18 9 18 5 -3
-3 -15 0 -22 7 -19 7 2 11 13 9 23 -2 15 -1 16 7 4 5 -8 7 -18 5 -22 -3 -4 -1
-8 5 -8 6 0 8 -8 4 -17 -3 -10 -3 -15 2 -11 12 11 12 52 0 61 -6 6 -3 7 6 4 9
-3 22 0 28 6 7 7 12 8 11 2 -5 -24 1 -27 16 -9 15 18 15 18 5 -2 -10 -21 -6
-34 10 -34 5 0 6 6 3 13 -3 8 2 20 11 27 9 7 15 9 13 4 -2 -5 2 -9 7 -9 5 0 9
3 8 6 -1 3 4 6 12 6 8 0 13 -5 12 -11 -1 -5 4 -10 12 -11 8 0 16 -7 18 -15 4
-12 3 -12 -5 -1 -7 9 -12 10 -16 2 -4 -6 -2 -11 3 -11 6 0 11 -5 11 -11 0 -8
-4 -8 -12 -2 -19 14 -41 10 -45 -7 -4 -13 -3 -13 6 0 10 14 16 7 12 -14 -1 -5
4 -5 11 1 7 6 21 9 30 8 11 -2 15 2 11 13 -3 13 -1 13 11 -2 9 -11 16 -14 16
-7 0 7 4 10 9 6 6 -3 8 -14 6 -25 -2 -11 0 -22 5 -25 5 -3 7 3 5 15 -2 11 0
22 6 25 5 4 9 1 9 -6 0 -7 7 -4 16 7 11 13 14 14 11 3 -3 -9 1 -16 8 -16 7 0
11 7 8 16 -3 9 5 5 16 -9 17 -20 20 -21 14 -5 -6 17 -4 18 8 8 12 -10 18 -10
29 0 10 10 12 8 6 -8 -6 -20 -6 -20 9 -1 8 11 14 29 14 40 -2 19 -2 19 -6 -2
-2 -12 -9 -20 -14 -17 -5 4 -5 13 1 24 5 10 7 20 5 23 -3 3 2 5 9 5 8 0 14 -5
13 -11 -1 -5 7 -10 18 -10 11 0 19 5 18 10 -1 6 4 11 12 11 8 0 13 -5 12 -11
-1 -6 4 -10 12 -8 9 2 11 -3 7 -13 -3 -9 -6 -20 -7 -23 0 -4 -4 2 -9 13 -8 18
-9 18 -9 2 -1 -10 -6 -15 -11 -12 -6 4 -8 10 -5 15 3 4 -2 7 -12 6 -9 -2 -20
-12 -24 -23 -6 -16 -3 -20 16 -19 13 1 27 5 31 8 3 4 14 -1 23 -10 9 -10 13
-13 9 -8 -12 16 -9 28 5 19 17 -11 38 -13 32 -3 -3 5 -1 11 4 14 5 4 12 -2 14
-11 4 -17 5 -17 6 0 0 10 6 15 11 12 6 -4 8 -10 6 -14 -3 -4 1 -8 7 -8 7 0 13
12 14 26 0 15 -1 18 -4 8 -2 -9 -9 -15 -14 -11 -5 3 -7 9 -4 14 6 10 -15 8
-32 -3 -9 -6 -13 -2 -14 10 0 14 -3 12 -10 -6 -5 -13 -12 -21 -15 -18 -3 3 -1
14 5 25 6 11 8 21 6 24 -3 3 2 5 9 5 8 0 14 -5 13 -11 -1 -5 7 -10 18 -10 11
0 19 5 18 10 -1 6 4 11 12 11 8 0 13 -5 12 -11 -1 -5 7 -10 18 -10 11 0 19 5
18 11 -1 6 5 10 15 9 9 -2 17 -9 17 -16 0 -7 5 -15 12 -17 8 -3 11 3 8 17 -3
18 -2 20 10 10 8 -7 12 -16 9 -21 -3 -5 2 -9 11 -9 13 0 14 4 5 23 -11 21 -10
21 4 3 15 -18 21 -15 17 8 -1 5 4 4 13 -3 10 -8 16 -9 21 -1 5 8 11 8 21 -1 7
-6 11 -15 8 -20 -3 -5 0 -9 7 -9 6 0 9 8 6 20 -3 11 -1 18 4 14 5 -3 9 -12 9
-20 0 -8 5 -14 11 -14 5 0 7 -5 3 -11 -4 -8 -9 -7 -15 2 -7 12 -9 12 -9 0 0
-11 -3 -11 -17 0 -10 8 -14 9 -10 2 4 -6 3 -14 -3 -18 -5 -3 -10 2 -11 12 0
16 -1 16 -9 -2 -6 -13 -9 -15 -9 -5 -1 13 -2 13 -11 0 -8 -12 -10 -12 -11 5
l0 20 -9 -20 c-6 -13 -9 -15 -9 -5 -1 13 -3 13 -10 1 -8 -12 -10 -12 -13 0 -4
11 -5 10 -4 -1 1 -11 14 -15 51 -15 28 0 56 -4 64 -9 9 -6 12 -5 7 2 -3 6 -2
13 4 17 5 3 10 0 10 -7 0 -9 3 -9 10 2 8 13 10 13 10 1 0 -11 4 -10 16 5 11
13 14 14 11 3 -3 -9 1 -16 8 -16 7 0 11 7 8 16 -3 12 -1 11 11 -3 15 -18 15
-18 13 1 -1 16 -7 20 -29 18 -28 -3 -40 7 -44 33 -2 10 1 10 11 2 10 -8 15 -8
20 0 5 8 10 8 20 0 10 -8 15 -8 20 0 5 8 10 8 20 0 10 -8 15 -8 20 0 5 8 11 8
21 -1 7 -6 11 -15 8 -20 -3 -5 0 -9 7 -9 6 0 9 8 6 20 -3 11 -1 18 4 14 5 -3
9 -12 9 -20 0 -8 5 -14 11 -14 5 0 7 -5 3 -11 -4 -8 -9 -7 -15 2 -5 8 -9 9 -9
3 0 -6 -7 -11 -15 -11 -8 0 -12 3 -10 7 2 4 -2 7 -8 7 -15 0 -20 -34 -6 -42 5
-4 6 2 2 11 -5 13 -3 15 8 8 17 -10 80 -13 73 -3 -2 4 0 10 5 13 5 4 12 -2 14
-11 4 -17 5 -17 6 0 0 10 6 15 11 12 6 -4 8 -10 6 -14 -3 -4 1 -8 9 -8 8 0 12
4 9 8 -2 4 0 10 5 13 5 4 11 1 14 -6 2 -8 3 -7 3 2 -1 11 -13 15 -43 15 -44 0
-56 6 -59 31 -2 11 1 12 11 4 10 -8 15 -8 20 0 5 8 14 6 28 -7 20 -17 20 -17
14 2 -6 17 -5 17 9 -2 9 -13 21 -23 26 -23 6 0 6 6 -1 14 -8 10 -9 16 -1 21
10 6 11 5 14 -14 0 -5 4 -13 9 -17 7 -7 11 11 7 31 -1 5 9 1 21 -10 20 -18 22
-18 16 -2 -4 11 -3 16 4 12 6 -4 8 -13 5 -21 -3 -8 1 -14 9 -14 9 0 12 8 10
21 -3 16 -1 18 9 10 9 -7 16 -7 23 0 8 8 14 5 22 -10 7 -12 17 -21 23 -21 7 0
7 4 -1 14 -8 10 -9 16 -1 21 10 6 11 5 14 -14 0 -5 4 -13 9 -17 7 -7 11 11 7
31 -1 5 9 1 21 -10 20 -18 22 -18 16 -2 -4 11 -3 16 4 12 6 -4 8 -13 5 -21 -3
-8 -1 -14 4 -14 10 0 14 15 10 35 -1 5 9 1 21 -10 20 -18 22 -18 16 -2 -4 11
-3 16 4 12 6 -4 8 -13 5 -21 -3 -8 -1 -14 4 -14 10 0 14 15 10 35 -1 5 9 1 21
-10 20 -18 22 -18 16 -2 -4 11 -3 16 4 12 6 -4 8 -13 5 -21 -3 -8 -1 -14 4
-14 10 0 14 15 10 35 -1 5 9 1 21 -10 20 -18 22 -18 16 -2 -4 11 -3 16 4 12 6
-4 8 -13 5 -21 -3 -8 -1 -14 4 -14 10 0 14 15 10 35 -1 5 9 1 21 -10 20 -18
22 -18 16 -2 -4 11 -3 16 4 12 6 -4 8 -13 5 -21 -3 -8 -1 -14 4 -14 10 0 14
15 10 35 -1 5 9 1 21 -10 20 -18 22 -18 16 -2 -4 11 -3 16 4 12 6 -4 8 -13 5
-21 -3 -8 -1 -14 4 -14 10 0 14 15 10 35 -1 5 9 1 21 -10 20 -18 22 -18 16 -2
-4 11 -3 16 4 12 6 -4 8 -13 5 -21 -3 -8 -1 -14 4 -14 10 0 14 15 10 35 -1 5
9 1 21 -10 20 -18 22 -18 16 -2 -4 11 -3 16 4 12 6 -4 8 -13 5 -21 -3 -8 -1
-14 4 -14 10 0 14 15 10 35 -1 5 9 1 21 -10 20 -18 22 -18 16 -2 -4 11 -3 16
4 12 6 -4 8 -13 5 -21 -3 -8 -1 -14 4 -14 10 0 14 15 10 35 -1 5 9 1 21 -10
20 -18 22 -18 16 -2 -4 11 -3 16 4 12 6 -4 8 -13 5 -21 -3 -8 -1 -14 4 -14 10
0 14 15 10 35 -1 5 9 1 21 -10 20 -18 22 -18 16 -2 -4 11 -3 16 4 12 6 -4 8
-13 5 -21 -3 -8 -1 -14 4 -14 10 0 14 15 10 35 -1 5 9 1 21 -10 20 -18 22 -18
16 -2 -4 11 -3 16 4 12 6 -4 8 -13 5 -21 -3 -8 -1 -14 4 -14 10 0 14 15 10 35
-1 5 9 1 21 -10 20 -18 22 -18 16 -2 -4 11 -3 16 4 12 6 -4 8 -13 5 -21 -3 -8
-1 -14 4 -14 10 0 14 15 10 35 -1 5 9 1 21 -10 20 -18 22 -18 16 -2 -4 11 -3
16 4 12 6 -4 8 -13 5 -21 -3 -8 -1 -14 4 -14 10 0 14 15 10 35 -1 5 9 1 21
-10 20 -18 22 -18 16 -2 -4 11 -3 16 4 12 6 -4 8 -13 5 -21 -3 -8 1 -14 9 -14
8 0 15 -4 15 -10 0 -12 -22 -9 -32 5 -5 6 -8 5 -8 -4 0 -10 -3 -11 -14 -2 -11
9 -16 9 -21 0 -6 -8 -10 -7 -16 2 -7 12 -9 12 -9 0 0 -10 -3 -11 -14 -2 -11 9
-16 9 -21 0 -6 -8 -10 -7 -16 2 -7 12 -9 12 -9 0 0 -10 -3 -11 -14 -2 -11 9
-16 9 -21 0 -6 -8 -10 -7 -16 2 -7 12 -9 12 -9 0 0 -10 -3 -11 -14 -2 -11 9
-16 9 -21 0 -6 -8 -10 -7 -16 2 -7 12 -9 12 -9 0 0 -10 -3 -11 -14 -2 -11 9
-16 9 -21 0 -6 -8 -10 -7 -16 2 -7 12 -9 12 -9 0 0 -10 -3 -11 -14 -2 -11 9
-16 9 -21 0 -6 -8 -10 -7 -16 2 -7 12 -9 12 -9 0 0 -10 -3 -11 -14 -2 -11 9
-16 9 -21 0 -6 -8 -10 -7 -16 2 -7 12 -9 12 -9 0 0 -10 -3 -11 -14 -2 -11 9
-16 9 -21 0 -6 -8 -10 -7 -16 2 -7 12 -9 12 -9 0 0 -10 -3 -11 -14 -2 -11 9
-16 9 -21 0 -6 -8 -10 -7 -16 2 -7 12 -9 12 -9 0 0 -10 -3 -11 -14 -2 -11 9
-16 9 -21 0 -6 -8 -10 -7 -16 2 -7 12 -9 12 -9 0 0 -10 -3 -11 -14 -2 -11 9
-16 9 -21 0 -6 -8 -10 -7 -16 2 -7 12 -9 12 -9 0 0 -10 -3 -11 -14 -2 -11 9
-16 9 -21 0 -6 -8 -10 -7 -16 2 -7 12 -9 12 -9 0 0 -10 -3 -11 -14 -2 -11 9
-16 9 -21 0 -6 -8 -10 -7 -16 2 -7 12 -9 12 -9 0 0 -10 -3 -11 -14 -2 -11 9
-16 9 -21 0 -6 -8 -10 -7 -16 2 -7 11 -9 11 -9 1 0 -8 -5 -10 -12 -5 -23 13
-39 12 -45 -5 -6 -13 -7 -13 -13 3 -6 18 -7 18 -12 -1 -4 -16 0 -20 17 -20 16
0 21 5 18 16 -3 8 5 4 16 -10 17 -20 20 -21 14 -5 -6 18 -5 18 10 6 9 -7 17
-10 17 -6 0 4 7 2 16 -5 8 -8 14 -9 13 -4 -4 23 2 26 16 8 15 -19 15 -19 8 1
-6 18 -5 18 10 6 9 -7 17 -10 17 -6 0 4 7 2 16 -5 8 -8 14 -9 13 -4 -4 23 2
26 16 8 15 -18 15 -18 8 0 -5 15 -3 17 8 10 8 -5 21 -9 29 -9 8 0 21 -4 28 -8
7 -5 12 -5 11 0 -4 22 2 25 16 7 15 -19 15 -19 8 1 -6 18 -5 18 10 6 9 -7 17
-10 17 -6 0 4 7 2 16 -5 8 -8 14 -9 13 -4 -4 23 2 26 16 8 15 -18 15 -18 8 0
-5 15 -3 17 8 10 8 -5 21 -9 29 -9 8 0 21 -4 28 -8 7 -5 12 -5 11 0 -4 22 2
25 16 7 15 -19 15 -19 8 1 -6 18 -5 18 10 6 9 -7 17 -10 17 -6 0 4 7 2 16 -5
8 -8 14 -9 13 -4 -4 23 2 26 16 8 15 -18 15 -18 8 0 -5 15 -3 17 8 10 8 -5 21
-9 29 -9 8 0 21 -4 28 -8 7 -5 12 -5 11 0 -4 22 2 25 16 7 15 -19 15 -19 8 1
-6 18 -5 18 10 6 9 -7 17 -10 17 -6 0 4 7 2 16 -5 8 -8 14 -9 13 -4 -4 23 2
26 16 8 15 -18 15 -18 8 0 -5 15 -3 17 8 10 8 -5 21 -9 29 -9 8 0 21 -4 28 -8
7 -5 12 -5 11 0 -4 22 2 25 16 7 15 -19 15 -19 8 1 -6 18 -5 18 10 6 9 -7 17
-10 17 -6 0 4 7 2 16 -5 8 -8 14 -9 13 -4 -4 21 2 28 11 14 7 -11 10 -11 10
-2 0 7 5 10 10 7 6 -4 7 -12 3 -18 -5 -9 -3 -9 8 -1 8 6 22 10 31 9 11 -2 15
2 11 13 -4 14 -2 13 11 -2 15 -18 15 -18 13 1 0 12 -8 19 -23 19 -15 0 -20 -5
-16 -15 4 -9 1 -12 -7 -7 -7 5 -10 14 -7 22 3 8 0 13 -6 11 -5 -1 -12 6 -13
16 -3 14 0 16 10 7 10 -8 15 -8 20 0 5 8 10 8 20 0 10 -8 15 -8 20 0 5 8 10 8
20 0 10 -8 15 -8 20 0 5 8 14 6 28 -7 20 -17 20 -17 14 2 -6 17 -5 17 9 -2 9
-13 21 -23 26 -23 6 0 6 6 -1 14 -8 10 -9 16 -1 21 10 6 11 5 14 -14 0 -5 4
-13 9 -17 7 -7 11 11 7 31 -1 5 9 1 21 -10 22 -20 22 -20 16 0 -6 17 -5 17 9
-2 9 -13 21 -23 26 -23 6 0 6 6 -1 14 -8 10 -9 16 -1 21 10 6 11 5 14 -17 0
-6 6 -13 13 -15 8 -3 11 3 8 17 -3 18 -1 20 10 10 9 -8 15 -8 20 0 5 8 10 8
20 0 10 -8 15 -8 20 0 5 8 10 8 20 0 10 -8 15 -8 20 0 5 8 10 8 20 0 10 -8 15
-8 20 0 5 8 10 8 20 0 10 -8 15 -8 20 0 5 8 14 6 28 -7 20 -17 20 -17 14 2 -6
17 -5 17 9 -2 9 -13 21 -23 26 -23 6 0 6 6 -1 14 -8 10 -9 16 -1 21 5 3 11 4
11 1 1 -3 3 -10 4 -16 1 -5 3 -13 4 -17 1 -5 6 -1 11 7 6 10 10 11 10 3 0 -7
7 -13 15 -13 8 0 15 5 15 11 0 5 -4 8 -8 5 -5 -3 -9 1 -9 8 0 7 6 13 13 13 7
0 13 -3 12 -6 -2 -18 3 -31 13 -31 5 0 7 5 4 10 -4 6 -1 9 7 8 7 -2 12 2 11 8
-1 6 4 11 12 11 8 0 13 -5 12 -11 -1 -6 4 -10 12 -8 9 2 11 -3 7 -13 -3 -9 -6
-20 -7 -23 0 -4 -4 2 -9 13 -8 18 -9 18 -9 2 -1 -10 -6 -15 -11 -12 -6 4 -7
12 -3 18 3 7 -3 3 -15 -7 -17 -14 -22 -16 -22 -5 0 11 -2 12 -9 1 -11 -17 -21
-17 -32 0 -5 7 -9 8 -9 2 0 -5 7 -19 15 -30 15 -19 15 -19 8 1 -6 20 -6 20 16
0 12 -11 22 -15 21 -10 -5 24 1 27 15 9 15 -19 15 -19 8 1 -6 20 -6 20 16 0
12 -11 22 -15 21 -10 -5 21 1 29 10 15 7 -11 10 -11 10 -2 0 7 5 10 10 7 6 -4
7 -11 4 -17 -4 -7 -2 -8 5 -4 6 4 9 11 6 16 -3 5 -1 11 5 15 5 3 10 -2 11 -12
0 -16 1 -16 9 2 8 19 11 18 14 -4 0 -5 5 -13 9 -18 5 -4 8 -3 7 2 -5 21 1 29
10 15 7 -11 10 -11 10 -2 0 7 5 10 10 7 6 -4 7 -12 3 -18 -5 -8 -2 -8 9 0 8 7
18 10 22 6 4 -4 4 1 1 12 -6 18 -5 19 7 3 13 -15 15 -15 27 0 11 16 12 16 7 0
-3 -11 1 -15 12 -13 9 1 23 -2 30 -8 7 -6 12 -6 11 -1 -4 22 2 25 19 7 9 -10
14 -14 10 -9 -12 16 -9 28 5 19 17 -11 38 -13 32 -3 -3 5 -1 11 5 15 5 3 10 0
10 -7 0 -9 3 -9 10 2 12 18 14 40 2 25 -10 -14 -32 -17 -32 -5 0 5 7 10 16 10
8 0 12 5 9 10 -5 8 -11 8 -19 1 -7 -6 -16 -8 -20 -4 -4 4 -4 0 -1 -9 4 -9 1
-19 -5 -23 -7 -4 -9 2 -6 20 3 18 1 25 -7 22 -7 -2 -11 -14 -10 -26 4 -28 -5
-27 -17 3 -5 14 -16 23 -24 22 -25 -4 -31 -16 -8 -16 12 0 22 -3 22 -8 0 -4
-13 -7 -30 -7 -16 -1 -30 4 -30 10 0 5 -4 3 -10 -5 -8 -12 -10 -12 -16 4 -5
14 -9 15 -15 4 -6 -9 -8 -7 -7 8 1 11 8 21 14 21 7 0 12 -5 11 -11 -1 -5 7
-10 18 -10 11 0 19 4 18 10 -1 6 28 9 70 9 40 -1 77 3 84 7 6 5 14 4 18 -2 5
-8 11 -7 21 1 9 7 14 8 13 3 -4 -23 2 -26 17 -8 15 19 15 19 6 -1 -5 -11 -7
-27 -5 -35 4 -12 3 -12 -5 -1 -5 7 -12 9 -14 5 -3 -5 -3 -4 -2 3 4 14 -10 26
-19 16 -4 -3 0 -18 9 -34 16 -32 27 -39 17 -11 -6 14 -4 15 8 5 12 -10 18 -10
29 0 10 10 12 8 6 -8 -6 -19 -5 -19 8 -2 9 12 16 15 21 7 5 -8 11 -8 21 1 15
12 19 0 7 -17 -5 -5 0 -1 10 9 16 18 22 15 18 -7 -1 -5 4 -4 12 2 8 7 16 9 20
6 3 -3 3 3 0 15 -3 11 -11 26 -19 32 -11 9 -16 6 -24 -12 l-11 -24 5 23 c3 15
0 22 -7 19 -7 -2 -11 -13 -9 -23 2 -14 1 -16 -6 -5 -8 11 -10 11 -14 0 -3 -8
-5 -2 -5 14 0 15 3 30 8 33 5 3 6 -3 2 -13 -5 -15 -4 -16 8 -7 8 6 34 10 59 9
25 -1 50 2 56 6 6 5 11 -1 12 -16 3 -48 5 -53 21 -50 9 1 15 9 14 16 -1 8 7
25 17 39 16 20 19 21 13 5 -6 -19 -6 -19 14 -2 14 13 23 15 28 7 5 -8 10 -8
20 0 10 8 15 8 20 0 5 -8 10 -8 20 0 10 8 15 8 20 -1 6 -8 9 -8 15 1 5 8 9 7
13 -5 4 -9 3 -13 -2 -10 -5 3 -12 1 -16 -5 -3 -5 3 -10 14 -10 10 0 22 6 24
13 4 9 6 9 6 -1 1 -7 6 -10 11 -7 8 5 8 11 1 19 -8 9 -7 13 4 13 7 0 13 -5 12
-11 -1 -5 7 -10 18 -10 11 0 19 4 18 10 -1 6 42 9 110 9 83 0 112 -3 112 -12
0 -7 3 -13 8 -13 4 0 9 0 12 0 3 0 1 10 -5 23 -11 21 -10 21 4 3 15 -18 20
-15 17 9 -1 6 7 0 18 -12 25 -29 35 -29 21 0 -11 21 -10 21 4 3 15 -18 21 -15
17 8 -1 5 4 4 13 -3 10 -9 16 -9 21 -1 5 8 13 6 25 -5 17 -15 19 -15 29 2 11
17 11 17 9 -1 -2 -10 3 -21 10 -23 7 -3 10 1 6 10 -7 18 12 32 22 16 4 -8 3
-9 -4 -5 -13 8 -17 -6 -5 -17 10 -10 34 14 26 27 -4 6 0 5 9 -2 12 -9 18 -10
23 -2 5 8 10 8 20 0 10 -8 14 -7 18 2 3 7 4 -5 1 -27 l-4 -40 14 30 c7 17 12
33 10 36 -2 3 4 6 12 6 10 0 11 -4 4 -11 -17 -17 -11 -29 7 -15 11 10 14 10 9
2 -4 -8 -2 -13 5 -13 6 0 9 8 6 20 -3 11 -3 20 -1 20 5 0 28 -52 26 -61 -1 -8
82 -4 97 5 11 7 13 5 8 -10 -7 -18 -7 -18 8 0 14 18 20 15 16 -8 -1 -5 4 -4
12 2 8 7 18 8 22 4 5 -4 5 -2 1 5 -3 6 -2 14 4 18 5 3 10 -1 10 -9 0 -8 3 -17
8 -19 4 -3 7 5 7 18 0 14 -5 22 -15 20 -8 -1 -21 2 -29 8 -10 9 -16 7 -26 -6
-9 -12 -15 -15 -20 -7 -5 8 -11 8 -21 -1 -8 -6 -14 -8 -15 -3 0 5 -2 17 -4 27
-2 9 1 15 6 11 5 -3 7 -10 4 -15 -4 -5 -2 -9 4 -9 5 0 12 6 14 13 4 10 6 10 6
0 1 -7 6 -13 12 -13 5 0 8 4 5 9 -3 4 5 7 17 7 12 -1 29 4 39 12 11 9 18 10
23 2 5 -8 10 -8 20 0 10 8 15 8 20 -1 6 -8 9 -8 15 1 5 8 9 7 13 -5 4 -9 3
-13 -2 -10 -5 3 -12 1 -16 -5 -12 -20 27 -9 46 13 11 12 19 18 18 12 -3 -23 2
-29 12 -15 9 12 10 12 5 -3 -4 -12 -2 -17 6 -14 7 2 12 13 10 23 -2 18 -2 18
9 1 10 -18 12 -18 31 -1 11 10 19 14 18 9 -5 -21 1 -29 10 -15 9 13 10 13 10
0 0 -13 1 -13 10 0 6 10 10 11 10 3 0 -7 5 -13 11 -13 5 0 7 5 3 12 -4 7 -3 8
4 4 7 -4 12 -1 12 6 0 10 2 10 9 -1 5 -8 19 -16 32 -18 17 -3 19 0 11 10 -9
11 4 13 69 12 44 0 83 3 86 7 2 5 9 6 14 2 5 -3 7 -10 4 -15 -4 -5 4 -7 17 -5
13 2 22 8 21 13 -1 5 5 10 12 10 11 0 12 -4 4 -14 -8 -9 -8 -13 -1 -13 6 0 16
8 22 18 11 16 11 16 6 0 -3 -12 0 -18 9 -18 9 0 12 6 9 18 -5 13 -4 14 4 3 5
-7 12 -9 14 -5 3 5 3 3 1 -4 -1 -8 3 -12 9 -10 7 3 13 10 13 16 0 5 4 14 8 19
5 4 7 3 5 -4 -2 -6 2 -11 7 -11 6 0 9 3 8 7 -1 4 4 8 12 8 8 0 13 -5 12 -11
-1 -6 4 -10 11 -8 6 1 12 -5 12 -15 0 -15 -2 -15 -19 1 -12 11 -21 14 -26 7
-3 -6 1 -11 10 -11 9 0 13 -5 10 -10 -4 -7 -12 -7 -18 -2 -20 14 -39 8 -48
-16 -6 -15 -5 -21 1 -17 6 3 10 13 10 21 0 8 5 12 10 9 6 -4 8 -10 5 -15 -3
-5 -1 -12 5 -15 6 -4 10 -3 9 2 -3 20 2 27 11 13 7 -11 10 -11 10 -2 0 7 5 10
10 7 6 -4 7 -11 4 -17 -5 -7 -2 -8 7 -2 8 5 19 9 24 9 6 0 11 12 11 28 1 25 1
25 -3 2 -2 -14 -8 -23 -13 -20 -6 3 -6 15 0 29 5 13 7 26 4 28 -2 3 3 5 11 5
8 0 12 -3 10 -7 -2 -3 0 -12 5 -20 4 -7 4 -24 -1 -37 -6 -16 -5 -22 1 -18 6 3
10 13 10 21 0 8 5 12 10 9 6 -4 8 -10 5 -15 -3 -5 -1 -12 5 -15 6 -4 9 -1 8 7
-2 7 3 12 10 10 8 -1 11 2 8 7 -4 5 -2 12 3 15 5 4 12 -2 14 -11 4 -17 5 -17
6 0 0 10 6 15 11 12 6 -4 8 -10 5 -15 -3 -4 3 -14 13 -21 15 -13 16 -12 4 3
-9 11 -10 18 -2 23 5 3 10 0 10 -7 0 -10 2 -10 9 1 7 11 9 11 14 0 4 -10 6
-10 6 -1 1 6 6 12 12 12 5 0 8 -4 4 -9 -3 -5 -1 -13 5 -16 6 -4 10 -3 9 2 -4
22 2 25 16 7 15 -19 15 -19 8 1 -6 17 -5 18 9 7 9 -7 19 -9 21 -4 7 10 87 10
104 -1 8 -5 10 1 8 18 -1 16 3 25 12 25 8 0 11 5 8 10 -10 17 -35 -8 -28 -27
4 -11 2 -14 -6 -9 -6 4 -10 14 -9 21 2 8 -1 14 -7 14 -5 0 -9 -6 -7 -14 1 -7
-3 -17 -9 -21 -9 -5 -10 -2 -6 9 3 9 2 19 -3 22 -6 4 -10 -2 -10 -13 0 -10 -7
-19 -15 -19 -19 0 -19 5 0 24 8 8 12 20 9 26 -5 8 -3 8 6 0 11 -10 18 -9 33 4
10 10 17 13 15 8 -2 -6 2 -10 7 -10 6 0 9 3 8 6 -1 3 4 6 12 6 8 0 13 -5 12
-11 -3 -17 27 -13 41 7 10 13 17 15 26 8 9 -7 16 -7 23 0 8 8 14 5 22 -10 7
-12 17 -21 23 -21 7 0 7 4 -1 14 -8 10 -9 16 -1 21 10 6 11 5 14 -17 0 -6 6
-13 13 -15 8 -3 11 3 8 17 -4 19 -2 20 12 8 20 -17 19 -17 38 7 16 20 16 19 5
-2 -6 -13 -8 -23 -4 -23 3 0 14 10 25 23 11 12 19 18 18 12 -3 -24 2 -27 16
-9 15 19 15 19 9 -1 l-6 -20 18 20 c14 17 16 17 11 3 -7 -20 9 -25 16 -5 4 10
6 10 6 0 1 -7 6 -13 12 -13 5 0 7 4 4 10 -4 6 1 7 12 3 16 -6 17 -5 3 13 -14
17 -14 18 2 6 16 -13 14 -47 -2 -37 -5 3 -12 0 -16 -6 -4 -8 -9 -7 -15 2 -7
12 -9 12 -9 0 0 -10 -3 -11 -14 -2 -10 8 -16 9 -21 1 -3 -6 -10 -8 -15 -5 -5
3 -12 0 -16 -6 -4 -8 -9 -7 -15 2 -7 12 -9 12 -9 0 0 -9 -4 -10 -12 -4 -19 14
-44 9 -39 -7 2 -8 4 -20 4 -27 0 -7 4 -10 8 -7 5 2 5 12 2 22 -6 14 -4 15 8 5
12 -10 18 -10 29 0 10 10 12 8 6 -8 -6 -20 -6 -20 9 -1 14 18 20 15 16 -7 -1
-5 3 -6 9 -2 6 3 8 10 5 15 -3 5 -1 11 5 15 5 3 10 -2 11 -12 0 -16 1 -16 9 2
8 19 11 18 14 -4 0 -5 5 -13 9 -18 5 -4 7 -1 5 7 -2 10 4 15 19 14 13 -1 20 2
18 7 -3 4 -1 10 4 13 5 4 12 -2 14 -11 3 -10 3 2 2 27 -2 40 -1 42 11 25 8
-10 15 -16 15 -12 1 4 2 11 3 16 0 5 5 13 10 18 5 4 6 3 2 -4 -3 -6 -2 -14 4
-18 16 -10 2 -24 -20 -20 -16 3 -18 0 -10 -20 5 -12 6 -27 2 -31 -4 -5 0 -3 8
3 8 6 22 9 30 8 11 -2 16 6 17 24 0 14 -1 18 -4 8 -2 -9 -9 -15 -14 -11 -6 4
-6 11 1 19 6 7 9 19 8 26 -2 7 6 13 17 14 11 0 26 4 33 8 6 5 12 7 13 5 6 -30
7 -70 2 -64 -5 4 -9 12 -9 17 -1 5 -2 13 -3 18 -1 12 -34 7 -38 -6 -2 -6 0
-14 6 -17 5 -3 7 -16 5 -29 -4 -20 -4 -21 5 -2 7 14 10 15 10 5 1 -13 2 -13
11 0 9 14 11 13 14 -9 0 -5 4 -12 9 -15 4 -3 5 -3 2 1 -3 3 0 12 6 20 9 10 15
11 26 1 8 -6 13 -7 12 -2 -3 20 2 28 10 15 6 -9 9 -5 9 14 0 15 -3 23 -7 19
-10 -15 -31 -15 -31 -1 0 7 7 22 16 33 14 18 15 18 4 -3 -14 -31 -4 -29 26 5
14 15 23 22 20 15 -4 -6 -2 -14 4 -18 9 -6 14 8 11 28 -1 5 4 5 11 0 7 -4 18
-8 23 -8 16 -2 35 16 29 26 -3 5 0 8 8 7 7 -2 12 3 10 10 -1 8 2 11 7 8 5 -4
14 2 20 11 6 10 11 13 11 6 0 -6 -5 -15 -10 -18 -8 -5 -7 -12 2 -23 11 -15 11
-15 -3 -5 -13 11 -19 9 -34 -7 -11 -12 -14 -20 -6 -20 7 0 9 -5 5 -11 -4 -8
-9 -7 -15 2 -7 11 -9 11 -9 -1 0 -9 -3 -11 -8 -5 -10 14 -32 17 -32 5 0 -5 7
-10 15 -10 9 0 12 -6 9 -15 -6 -14 -8 -13 -20 2 -13 16 -13 15 -2 -10 8 -20
14 -24 20 -15 4 7 8 9 8 4 0 -5 6 -3 13 3 8 6 17 8 21 4 4 -4 4 1 0 12 -6 16
-4 18 6 8 11 -10 18 -9 33 5 10 9 22 17 25 17 4 0 5 7 4 14 -3 12 -1 13 11 2
13 -10 15 -9 13 6 -2 10 4 29 13 43 9 13 11 21 5 17 -16 -10 -25 18 -11 33 9
10 9 11 -1 5 -9 -5 -15 1 -19 16 -6 21 -7 22 -13 3 -4 -10 -5 -23 -2 -28 10
-17 8 -57 -3 -66 -7 -5 -10 10 -9 48 1 67 -5 91 -17 71 -4 -7 -5 -18 -1 -23
11 -19 9 -43 -4 -43 -9 0 -10 5 -3 18 5 11 5 20 0 24 -5 3 -11 0 -14 -7 -4
-13 0 9 8 45 4 16 2 17 -12 5 -15 -11 -16 -11 -10 7 7 20 7 20 -8 1 -10 -13
-15 -15 -15 -6 0 7 -2 11 -5 8 -3 -3 -2 -13 1 -22 5 -13 9 -14 14 -6 5 9 9 9
14 1 4 -6 2 -11 -4 -11 -6 0 -8 -6 -5 -12 4 -7 -2 -3 -13 10 -14 15 -22 18
-25 10 -4 -10 -6 -10 -6 0 -1 6 -6 12 -12 12 -5 0 -7 -6 -3 -12 6 -10 5 -10
-7 -1 -12 10 -18 10 -28 0 -7 -6 -12 -7 -11 -2 5 22 -1 29 -10 15 -6 -10 -10
-11 -10 -2 0 6 -5 12 -11 12 -5 0 -8 -4 -5 -8 3 -5 -1 -9 -9 -9 -8 0 -13 5
-12 10 1 5 -4 12 -12 15 -10 3 -11 0 -5 -9 6 -11 5 -12 -7 -2 -12 10 -18 10
-29 0 -10 -9 -11 -9 -6 1 4 6 2 12 -3 12 -6 0 -11 -6 -11 -12 0 -9 -4 -8 -10
2 -5 8 -10 11 -10 6 0 -5 -6 -3 -14 3 -11 10 -17 8 -26 -6 -10 -16 -11 -16 -6
0 3 9 1 17 -4 17 -6 0 -10 5 -10 11 0 8 6 7 17 -2 10 -8 14 -9 10 -2 -4 6 -3
14 3 18 5 3 10 -2 10 -11 0 -10 3 -15 6 -11 3 3 3 15 -1 27 -7 20 -7 21 -22 3
-11 -14 -14 -14 -10 -2 3 9 -1 16 -8 16 -8 0 -11 -7 -7 -16 5 -13 3 -14 -9 -5
-8 6 -21 12 -29 12 -22 1 -44 7 -55 14 -7 4 -11 -6 -12 -25z m-7970 -327 c-3
-11 0 -20 6 -20 6 0 10 5 9 12 -2 7 14 12 44 13 28 1 46 -3 45 -9 -1 -6 4 -10
11 -8 6 1 12 -4 12 -10 0 -9 3 -8 9 2 6 8 8 17 6 20 -2 4 2 7 10 7 11 0 12 -4
3 -14 -8 -11 -6 -13 11 -10 13 2 27 10 32 18 5 8 9 10 9 4 0 -6 36 -10 89 -10
57 1 89 -3 88 -10 -1 -5 4 -9 11 -7 6 1 12 -4 13 -10 0 -7 5 -4 10 7 8 19 9
19 6 1 -1 -11 -6 -19 -12 -19 -5 1 -15 -3 -22 -8 -8 -7 -15 -4 -22 8 -6 10
-11 13 -11 8 0 -6 -9 -11 -20 -11 -11 0 -20 5 -20 11 0 7 -3 7 -8 0 -4 -6 -16
-11 -27 -11 -11 0 -23 5 -27 11 -5 6 -8 6 -8 -2 0 -6 -8 -10 -17 -8 -10 1 -24
-3 -32 -9 -12 -9 -13 -7 -9 10 3 13 0 21 -7 21 -7 0 -10 -8 -7 -20 3 -14 1
-18 -7 -13 -6 4 -8 13 -4 19 4 8 1 7 -9 -1 -11 -9 -18 -10 -23 -2 -3 6 -11 8
-16 5 -5 -4 -9 0 -9 7 -1 9 -4 8 -10 -3 -11 -20 -58 -19 -70 1 -7 11 -10 12
-10 2 0 -7 -4 -11 -9 -7 -5 3 -12 1 -16 -5 -15 -24 -22 3 -8 30 17 35 23 39
16 10z"/>
</g>
</svg>
